<svg width="89" height="123" viewBox="0 0 89 123" fill="none" xmlns="http://www.w3.org/2000/svg">
<path d="M42.76 8.44C42.8667 8.38666 43.2933 8.36 44.04 8.36C48.2 8.57333 53.8267 8.62666 60.92 8.52C65.6133 8.41333 67.9333 8.36 67.88 8.36H68.84L69.08 8.6C69.3467 8.86667 69.3733 9.48 69.16 10.44C69.16 10.5467 69.1333 10.6533 69.08 10.76C68.8133 11.9333 68.5733 12.5733 68.36 12.68C68.2 12.7867 67.3733 12.84 65.88 12.84C62.7333 12.84 60.68 12.92 59.72 13.08C58.8667 13.1867 58.3333 13.4 58.12 13.72L47 58.2C47 58.3067 47.1067 58.3867 47.32 58.44H52.68C56.6267 58.44 59.2133 58.28 60.44 57.96C60.5467 57.96 60.6533 57.9333 60.76 57.88C64.3867 57.0267 67.3733 55.1333 69.72 52.2C71.2133 50.3333 72.8133 47.1067 74.52 42.52C75 41.24 75.32 40.5733 75.48 40.52C75.8533 40.2533 76.7333 40.2267 78.12 40.44C78.3333 40.44 78.4667 40.4667 78.52 40.52C78.84 40.6267 79 40.8667 79 41.24L71.4 62.6C71.2933 62.8133 70.6 62.92 69.32 62.92C67.72 62.9733 61.3733 63 50.28 63C36.5733 63 29.64 62.9467 29.48 62.84C29.32 62.68 29.2133 62.5467 29.16 62.44C29.1067 62.2267 29.1867 61.6133 29.4 60.6C29.72 59.5333 29.9333 58.92 30.04 58.76L30.36 58.52H33.08C36.0667 58.4667 37.7467 58.2533 38.12 57.88C38.28 57.7733 40.2 50.36 43.88 35.64C47.56 20.92 49.4 13.5067 49.4 13.4C49.4 13.3467 49.3467 13.2667 49.24 13.16C49.0267 13.0533 47.5867 12.9467 44.92 12.84H42.2L41.96 12.6C41.64 12.3867 41.64 11.64 41.96 10.36C42.2267 9.24 42.4933 8.6 42.76 8.44Z" fill="#9FC2BE"/>
<path d="M15.76 33.44C15.8667 33.3867 16.2933 33.36 17.04 33.36C21.2 33.5733 26.8267 33.6267 33.92 33.52C38.6133 33.4133 40.9333 33.36 40.88 33.36H41.84L42.08 33.6C42.3467 33.8667 42.3733 34.48 42.16 35.44C42.16 35.5467 42.1333 35.6533 42.08 35.76C41.8133 36.9333 41.5733 37.5733 41.36 37.68C41.2 37.7867 40.3733 37.84 38.88 37.84C35.7333 37.84 33.68 37.92 32.72 38.08C31.8667 38.1867 31.3333 38.4 31.12 38.72L20 83.2C20 83.3067 20.1067 83.3867 20.32 83.44H25.68C29.6267 83.44 32.2133 83.28 33.44 82.96C33.5467 82.96 33.6533 82.9333 33.76 82.88C37.3867 82.0267 40.3733 80.1333 42.72 77.2C44.2133 75.3333 45.8133 72.1067 47.52 67.52C48 66.24 48.32 65.5733 48.48 65.52C48.8533 65.2533 49.7333 65.2267 51.12 65.44C51.3333 65.44 51.4667 65.4667 51.52 65.52C51.84 65.6267 52 65.8667 52 66.24L44.4 87.6C44.2933 87.8133 43.6 87.92 42.32 87.92C40.72 87.9733 34.3733 88 23.28 88C9.57333 88 2.64 87.9467 2.48 87.84C2.32 87.68 2.21333 87.5467 2.16 87.44C2.10667 87.2267 2.18667 86.6133 2.4 85.6C2.72 84.5333 2.93333 83.92 3.04 83.76L3.36 83.52H6.08C9.06667 83.4667 10.7467 83.2533 11.12 82.88C11.28 82.7733 13.2 75.36 16.88 60.64C20.56 45.92 22.4 38.5067 22.4 38.4C22.4 38.3467 22.3467 38.2667 22.24 38.16C22.0267 38.0533 20.5867 37.9467 17.92 37.84H15.2L14.96 37.6C14.64 37.3867 14.64 36.64 14.96 35.36C15.2267 34.24 15.4933 33.6 15.76 33.44Z" fill="#B89576"/>
</svg>
