<svg width="123" height="15" viewBox="0 0 123 15" fill="none" xmlns="http://www.w3.org/2000/svg">
<g id="Component 20">
<path id="Star" d="M7.5 1.30198L9.02211 4.96158L9.1394 5.24356L9.44382 5.26797L13.3947 5.58471L10.3845 8.1632L10.1526 8.36188L10.2235 8.65895L11.1431 12.5143L7.76063 10.4483L7.5 10.2891L7.23937 10.4483L3.85689 12.5143L4.77654 8.65895L4.8474 8.36188L4.61546 8.1632L1.60533 5.58471L5.55618 5.26797L5.8606 5.24356L5.97789 4.96158L7.5 1.30198Z" fill="#F1C644" stroke="#F1C644"/>
<path id="Star_2" d="M34.5 1.30198L36.0221 4.96158L36.1394 5.24356L36.4438 5.26797L40.3947 5.58471L37.3845 8.1632L37.1526 8.36188L37.2235 8.65895L38.1431 12.5143L34.7606 10.4483L34.5 10.2891L34.2394 10.4483L30.8569 12.5143L31.7765 8.65895L31.8474 8.36188L31.6155 8.1632L28.6053 5.58471L32.5562 5.26797L32.8606 5.24356L32.9779 4.96158L34.5 1.30198Z" fill="#F1C644" stroke="#F1C644"/>
<path id="Star_3" d="M61.5 1.30198L63.0221 4.96158L63.1394 5.24356L63.4438 5.26797L67.3947 5.58471L64.3845 8.1632L64.1526 8.36188L64.2235 8.65895L65.1431 12.5143L61.7606 10.4483L61.5 10.2891L61.2394 10.4483L57.8569 12.5143L58.7765 8.65895L58.8474 8.36188L58.6155 8.1632L55.6053 5.58471L59.5562 5.26797L59.8606 5.24356L59.9779 4.96158L61.5 1.30198Z" fill="#F1C644" stroke="#F1C644"/>
<path id="Star_4" d="M88.5 1.30198L90.0221 4.96158L90.1394 5.24356L90.4438 5.26797L94.3947 5.58471L91.3845 8.1632L91.1526 8.36188L91.2235 8.65895L92.1431 12.5143L88.7606 10.4483L88.5 10.2891L88.2394 10.4483L84.8569 12.5143L85.7765 8.65895L85.8474 8.36188L85.6155 8.1632L82.6053 5.58471L86.5562 5.26797L86.8606 5.24356L86.9779 4.96158L88.5 1.30198Z" stroke="#F1C644"/>
<path id="Star_5" d="M115.5 1.30198L117.022 4.96158L117.139 5.24356L117.444 5.26797L121.395 5.58471L118.385 8.1632L118.153 8.36188L118.223 8.65895L119.143 12.5143L115.761 10.4483L115.5 10.2891L115.239 10.4483L111.857 12.5143L112.777 8.65895L112.847 8.36188L112.615 8.1632L109.605 5.58471L113.556 5.26797L113.861 5.24356L113.978 4.96158L115.5 1.30198Z" stroke="#F1C644"/>
</g>
</svg>
